<svg viewBox="0 0 18 18" fill="none" xmlns="http://www.w3.org/2000/svg">
<path d="M14.8748 3.88712L14.8744 3.88673C14.495 3.5148 14.0476 3.21923 13.5567 3.0161L13.556 3.01583C13.0467 2.80427 12.5005 2.69598 11.949 2.69725L11.9479 2.69725C11.1727 2.69725 10.4174 2.90946 9.76137 3.30964L9.76136 3.30965C9.60441 3.40539 9.45567 3.51031 9.31497 3.62444L9 3.87991L8.68503 3.62444C8.54433 3.51031 8.3956 3.40539 8.23864 3.30965L8.23863 3.30964C7.58265 2.90946 6.8273 2.69725 6.05215 2.69725C5.49308 2.69725 4.95365 2.80411 4.44395 3.01583L4.44341 3.01606C3.95061 3.22008 3.50697 3.5132 3.12545 3.88688L3.12476 3.88755C2.7462 4.25691 2.44379 4.69697 2.23467 5.18278L14.8748 3.88712ZM14.8748 3.88712C15.253 4.25707 15.5555 4.6972 15.7654 5.1829C15.9829 5.68838 16.0936 6.22357 16.092 6.77493V6.77635C16.092 7.29324 15.9865 7.84272 15.7681 8.41357L15.7677 8.4147C15.5868 8.89113 15.3196 9.39534 14.9725 9.9135C14.4232 10.7324 13.6587 11.5995 12.695 12.4892C11.0934 13.9667 9.50776 14.9873 9.44911 15.0249L9.44902 15.025L9.03339 15.2916C9.03332 15.2916 9.03326 15.2917 9.03319 15.2917C9.01274 15.3046 8.98551 15.3046 8.96505 15.2917C8.96499 15.2917 8.96492 15.2916 8.96486 15.2916L8.54923 15.025L8.54927 15.0249L8.54135 15.0201C8.54189 15.0204 8.53539 15.0163 8.51951 15.0061C8.50491 14.9967 8.48451 14.9834 8.45867 14.9665C8.40702 14.9325 8.33418 14.884 8.24316 14.8221C8.06109 14.6981 7.80681 14.5205 7.50412 14.2977C6.89797 13.8515 6.10159 13.2265 5.30328 12.4893L5.30323 12.4892M14.8748 3.88712L5.30323 12.4892M5.30323 12.4892C4.33951 11.5995 3.57508 10.7324 3.02576 9.9135M5.30323 12.4892L3.02576 9.9135M3.02576 9.9135C2.67928 9.3963 2.41326 8.89165 2.2301 8.41357L3.02576 9.9135ZM1.90625 6.77635C1.90625 6.224 2.01712 5.68832 2.23465 5.18282L2.23 8.41332C2.01176 7.84256 1.90625 7.29317 1.90625 6.77635Z" fill="#FEFEFE" stroke="currentColor"/>
</svg>
